<svg version="1.1" id="Layer_1" xmlns="http://www.w3.org/2000/svg" xmlns:xlink="http://www.w3.org/1999/xlink" x="0px" y="0px"
	 width="100%" viewBox="0 0 100 100" enable-background="new 0 0 100 100" xml:space="preserve">
<path fill="none" opacity="1.000000" stroke="none" 
	d="
M61.000000,101.000000 
	C40.666672,101.000000 20.833340,101.000000 1.000008,101.000000 
	C1.000005,67.666679 1.000005,34.333351 1.000003,1.000021 
	C34.333317,1.000014 67.666634,1.000014 100.999969,1.000007 
	C100.999977,34.333313 100.999977,67.666626 100.999985,100.999969 
	C87.833336,101.000000 74.666664,101.000000 61.000000,101.000000 
M32.948704,94.564400 
	C37.968529,91.707130 42.896729,88.665527 48.060898,86.098648 
	C49.731609,85.268219 52.429062,84.887802 53.955799,85.669968 
	C59.793766,88.660774 65.301727,92.288284 71.033195,95.499062 
	C72.688652,96.426445 74.680077,96.754112 76.792480,97.446922 
	C76.792480,66.153946 76.792480,35.765850 76.792480,5.361451 
	C59.410217,5.361451 42.238003,5.361451 25.266872,5.361451 
	C25.266872,36.113346 25.266872,66.503433 25.266872,97.857071 
	C27.989817,96.736717 30.129959,95.856155 32.948704,94.564400 
z"/>
<path fill="#FFFFFF" opacity="1.000000" stroke="none" 
	d="
M32.609406,94.770004 
	C30.129959,95.856155 27.989817,96.736717 25.266872,97.857071 
	C25.266872,66.503433 25.266872,36.113346 25.266872,5.361451 
	C42.238003,5.361451 59.410217,5.361451 76.792480,5.361451 
	C76.792480,35.765850 76.792480,66.153946 76.792480,97.446922 
	C74.680077,96.754112 72.688652,96.426445 71.033195,95.499062 
	C65.301727,92.288284 59.793766,88.660774 53.955799,85.669968 
	C52.429062,84.887802 49.731609,85.268219 48.060898,86.098648 
	C42.896729,88.665527 37.968529,91.707130 32.609406,94.770004 
z"/>
</svg>
