<svg version="1.1" id="Layer_1" xmlns="http://www.w3.org/2000/svg" xmlns:xlink="http://www.w3.org/1999/xlink" x="0px" y="0px"
	 width="100%" viewBox="0 0 100 100" enable-background="new 0 0 100 100" xml:space="preserve">
<path fill="none" opacity="1.000000" stroke="none" 
	d="
M54.000000,101.000000 
	C37.000004,101.000000 20.499516,100.937447 4.000533,101.066788 
	C1.497994,101.086411 0.927402,100.500175 0.935280,97.999802 
	C1.034011,66.666786 1.034007,35.333248 0.935287,4.000231 
	C0.927410,1.499949 1.499759,0.927397 4.000176,0.935277 
	C35.333191,1.034015 66.666733,1.034005 97.999748,0.935291 
	C100.499985,0.927414 101.072601,1.499695 101.064720,4.000158 
	C100.965973,35.333176 100.965988,66.666718 101.064697,97.999733 
	C101.072578,100.499931 100.502892,101.091026 97.999420,101.067268 
	C83.500710,100.929573 69.000023,101.000000 54.000000,101.000000 
z"/>
<path fill="#FFFFFF" opacity="1.000000" stroke="none" 
	d="
M35.258347,93.292511 
	C24.999979,98.220863 24.999990,98.220863 24.999994,87.237587 
	C25.000006,61.274223 25.064327,35.310505 24.920765,9.347933 
	C24.902266,6.002415 25.500778,4.843977 29.155273,4.902738 
	C43.797489,5.138171 58.447533,5.124063 73.090355,4.908376 
	C76.533195,4.857664 77.077209,6.012436 77.064987,9.093873 
	C76.954109,37.053978 77.015823,65.014740 76.949974,92.975136 
	C76.946907,94.277435 77.963562,96.267952 76.052048,96.839516 
	C74.614914,97.269234 73.051712,97.111031 71.417656,96.044907 
	C65.780289,92.366875 59.920086,89.025986 54.093716,85.644638 
	C52.303219,84.605515 50.573547,84.937271 48.566418,85.783775 
	C43.937897,87.735863 40.047443,90.918442 35.258347,93.292511 
z"/>
<path fill="#000000" opacity="1.000000" stroke="none" 
	d="
M73.000000,22.009007 
	C73.000000,44.921043 73.000000,67.334183 73.000000,90.577522 
	C66.553497,86.944138 60.649143,83.818428 54.967667,80.329750 
	C52.081242,78.557358 49.851982,78.549438 46.940639,80.387688 
	C41.412640,83.878128 35.585045,86.894089 29.902218,90.095665 
	C28.397774,88.904213 29.036236,87.478638 29.034018,86.289879 
	C28.988728,61.997791 29.107470,37.704639 28.890982,13.414394 
	C28.856144,9.505649 30.025145,8.845523 33.586327,8.913321 
	C45.561687,9.141312 57.545334,9.093263 69.522865,8.932074 
	C72.383224,8.893580 73.273880,9.731027 73.052834,12.529440 
	C72.817734,15.505816 72.999977,18.515158 73.000000,22.009007 
z"/>
</svg>
