<svg version="1.1" id="Layer_1" xmlns="http://www.w3.org/2000/svg" xmlns:xlink="http://www.w3.org/1999/xlink" x="0px" y="0px"
	 width="100%" viewBox="0 0 60 60" enable-background="new 0 0 60 60" xml:space="preserve">
<path fill="none" opacity="1.000000" stroke="none" 
	d="
M38.000156,61.000000 
	C25.333433,61.000000 13.166769,61.000000 1.000078,61.000000 
	C1.000052,41.000038 1.000052,21.000074 1.000026,1.000083 
	C20.999960,1.000055 40.999920,1.000055 60.999908,1.000028 
	C60.999939,20.999958 60.999939,40.999916 60.999969,60.999939 
	C53.500072,61.000000 46.000141,61.000000 38.000156,61.000000 
M10.974415,14.974588 
	C10.974415,14.974588 10.939684,14.905609 10.304687,15.191382 
	C9.606977,15.881815 8.852071,16.523903 8.220922,17.270597 
	C4.385054,21.808712 3.720570,31.409863 6.737898,35.764435 
	C8.187633,38.375546 9.255687,41.317242 11.169292,43.526573 
	C14.771255,47.685188 14.838778,50.081612 10.656123,53.753643 
	C9.895086,54.421772 9.374304,55.363564 8.742611,56.179024 
	C9.115783,56.764614 9.488955,57.350208 9.862127,57.935799 
	C13.037836,56.704994 16.605093,56.023586 19.292833,54.108086 
	C22.871105,51.557919 26.447456,50.525509 30.691235,50.982021 
	C36.422874,51.598579 41.623810,50.145073 46.554607,47.115055 
	C56.363743,41.087257 59.451912,31.069847 55.498226,20.968102 
	C49.851601,6.540838 27.445709,2.725019 15.282210,10.993155 
	C13.823294,12.308706 12.364377,13.624257 10.974415,14.974588 
z"/>
<path fill="#1D9BF0" opacity="1.000000" stroke="none" 
	d="
M15.957764,10.885340 
	C27.445709,2.725019 49.851601,6.540838 55.498226,20.968102 
	C59.451912,31.069847 56.363743,41.087257 46.554607,47.115055 
	C41.623810,50.145073 36.422874,51.598579 30.691235,50.982021 
	C26.447456,50.525509 22.871105,51.557919 19.292833,54.108086 
	C16.605093,56.023586 13.037836,56.704994 9.862127,57.935799 
	C9.488955,57.350208 9.115783,56.764614 8.742611,56.179024 
	C9.374304,55.363564 9.895086,54.421772 10.656123,53.753643 
	C14.838778,50.081612 14.771255,47.685188 11.169292,43.526573 
	C9.255687,41.317242 8.187633,38.375546 6.856165,34.976341 
	C5.401527,27.165449 9.883032,21.387671 10.939684,14.905609 
	C10.939684,14.905609 10.974415,14.974588 11.329442,14.959657 
	C14.485844,15.041098 15.986551,13.768265 15.957764,10.885340 
z"/>
<path fill="#1D9BF0" opacity="1.000000" stroke="none" 
	d="
M10.622185,15.048496 
	C9.883032,21.387671 5.401527,27.165449 6.965973,34.651390 
	C3.720570,31.409863 4.385054,21.808712 8.220922,17.270597 
	C8.852071,16.523903 9.606977,15.881815 10.622185,15.048496 
z"/>
<path fill="#1D9BF0" opacity="1.000000" stroke="none" 
	d="
M15.619987,10.939247 
	C15.986551,13.768265 14.485844,15.041098 11.294965,14.942266 
	C12.364377,13.624257 13.823294,12.308706 15.619987,10.939247 
z"/>
</svg>
