<svg width="18" height="18" viewBox="0 0 18 18" fill="none" xmlns="http://www.w3.org/2000/svg">
<path d="M10.7049 0.868334L7.24825 0.860001H7.24658C3.60158 0.860001 0.746582 3.71583 0.746582 7.36167C0.746582 10.7767 3.40158 13.3667 6.96742 13.5033V16.6933C6.96742 16.7833 7.00408 16.9317 7.06742 17.0292C7.18575 17.2167 7.38742 17.3183 7.59408 17.3183C7.70908 17.3183 7.82492 17.2867 7.92908 17.22C8.14908 17.08 13.3232 13.77 14.6691 12.6317C16.2541 11.29 17.2024 9.32333 17.2049 7.37167V7.3575C17.1999 3.71833 14.3466 0.868334 10.7049 0.867501V0.868334ZM13.8607 11.6783C12.9157 12.4783 9.80908 14.5158 8.21742 15.5475V12.8917C8.21742 12.5467 7.93825 12.2667 7.59242 12.2667H7.26242C4.21242 12.2667 1.99742 10.2033 1.99742 7.36167C1.99742 4.41667 4.30408 2.11 7.24742 2.11L10.7032 2.11833H10.7049C13.6482 2.11833 15.9549 4.42333 15.9566 7.365C15.9541 8.95667 15.1716 10.5683 13.8616 11.6783H13.8607Z" fill="#6E767D"/>
</svg>
