<svg version="1.1" id="Layer_1" xmlns="http://www.w3.org/2000/svg" xmlns:xlink="http://www.w3.org/1999/xlink" x="0px" y="0px"
	 width="100%" viewBox="0 0 64 64" enable-background="new 0 0 64 64" xml:space="preserve">
<path fill="none" opacity="1.000000" stroke="none" 
	d="
M41.000072,65.000000 
	C28.166719,65.000000 15.832651,64.931770 3.500749,65.064606 
	C1.350205,65.087776 0.925212,64.648109 0.936928,62.499710 
	C1.044171,42.833626 1.044158,23.166479 0.936942,3.500397 
	C0.925231,1.352216 1.351888,0.925212 3.500291,0.936928 
	C23.166372,1.044172 42.833519,1.044158 62.499603,0.936942 
	C64.647781,0.925231 65.074776,1.351888 65.063057,3.500290 
	C64.955818,23.166372 64.955833,42.833519 65.063049,62.499603 
	C65.074768,64.647781 64.654961,65.120422 62.498386,65.065987 
	C55.502857,64.889420 48.500080,65.000000 41.000072,65.000000 
z"/>
<path fill="#FFFFFF" opacity="1.000000" stroke="none" 
	d="
M22.211998,50.287285 
	C18.195221,50.964375 20.079060,48.474964 20.399981,47.224010 
	C23.335392,35.781830 30.695309,27.405327 39.551235,20.137722 
	C41.400749,18.619919 43.600437,17.526806 45.436665,15.995633 
	C46.448875,15.151584 47.716171,14.472445 48.454517,15.233557 
	C49.491184,16.302193 49.652477,18.491913 48.190376,19.097622 
	C44.792149,20.505413 49.361584,23.608406 46.403767,25.331059 
	C44.335964,26.535366 41.315605,27.581638 41.695930,31.424164 
	C41.854527,33.026505 39.345631,34.436417 37.742485,34.601933 
	C28.331289,35.573608 25.348986,42.673843 22.211998,50.287285 
z"/>
<path fill="#FFFFFF" opacity="1.000000" stroke="none" 
	d="
M17.224224,23.491568 
	C21.223673,20.949226 25.071020,22.224920 28.947195,22.769417 
	C27.424093,24.604050 25.362690,24.143354 23.658010,23.916452 
	C19.612156,23.377932 18.529396,25.049311 18.924778,28.790628 
	C19.099939,30.448092 19.612875,32.351498 17.914011,34.533447 
	C16.277960,30.777954 17.294741,27.263222 17.224224,23.491568 
z"/>
<path fill="#FFFFFF" opacity="1.000000" stroke="none" 
	d="
M40.743225,48.999962 
	C38.567890,48.740105 36.694469,49.583660 33.474556,47.304173 
	C42.758419,48.000824 48.485291,45.828117 45.456516,35.181248 
	C50.480778,41.663631 47.998222,47.800655 40.743225,48.999962 
z"/>
</svg>
