<?xml version="1.0" standalone="no"?>
<!DOCTYPE svg PUBLIC "-//W3C//DTD SVG 20010904//EN"
 "http://www.w3.org/TR/2001/REC-SVG-20010904/DTD/svg10.dtd">
<svg version="1.0" xmlns="http://www.w3.org/2000/svg"
 width="32.000000pt" height="32.000000pt" viewBox="0 0 32.000000 32.000000"
 preserveAspectRatio="xMidYMid meet">
<metadata>
Created by potrace 1.16, written by Peter Selinger 2001-2019
</metadata>
<g transform="translate(0.000000,32.000000) scale(0.100000,-0.100000)"
fill="#000000" stroke="none">
<path d="M114 245 c-4 -8 -15 -15 -25 -15 -10 0 -19 -4 -19 -10 0 -5 4 -10 10
-10 5 0 10 -30 12 -67 l3 -68 58 -3 c66 -3 64 -6 69 91 4 59 2 67 -14 67 -10
0 -18 7 -18 15 0 11 -11 15 -35 15 -22 0 -38 -6 -41 -15z"/>
</g>
</svg>
