<svg version="1.1" id="Layer_1" xmlns="http://www.w3.org/2000/svg" xmlns:xlink="http://www.w3.org/1999/xlink" x="0px" y="0px"
	 width="100%" viewBox="0 0 100 100" enable-background="new 0 0 100 100" xml:space="preserve">
<path fill="none" opacity="1.000000" stroke="none" 
	d="
M55.000000,101.000000 
	C36.666668,101.000000 18.833340,101.000000 1.000007,101.000000 
	C1.000005,67.666679 1.000005,34.333351 1.000002,1.000021 
	C34.333317,1.000014 67.666634,1.000014 100.999969,1.000007 
	C100.999977,34.333313 100.999977,67.666626 100.999985,100.999969 
	C85.833336,101.000000 70.666664,101.000000 55.000000,101.000000 
M81.501595,88.000938 
	C83.901031,90.480843 86.300476,92.960739 88.683800,95.423988 
	C91.166161,93.057014 93.170372,91.145966 95.729706,88.705605 
	C86.932022,80.000420 78.354965,71.513550 69.776588,63.025372 
	C75.689453,55.489239 77.599594,47.207752 77.045624,38.090179 
	C76.320816,26.160706 70.596054,17.241383 60.600468,11.326453 
	C46.639980,3.065279 26.775517,5.870444 15.912305,19.438255 
	C6.807146,30.810312 6.477041,50.172550 15.153472,61.629406 
	C25.626322,75.458344 44.398411,79.203209 59.526112,71.063622 
	C62.074677,69.692345 63.828545,70.041443 65.873421,72.241364 
	C70.747299,77.484802 75.938164,82.433601 81.501595,88.000938 
z"/>
<path fill="#FFFFFF" opacity="1.000000" stroke="none" 
	d="
M81.251297,87.751175 
	C75.938164,82.433601 70.747299,77.484802 65.873421,72.241364 
	C63.828545,70.041443 62.074677,69.692345 59.526112,71.063622 
	C44.398411,79.203209 25.626322,75.458344 15.153472,61.629406 
	C6.477041,50.172550 6.807146,30.810312 15.912305,19.438255 
	C26.775517,5.870444 46.639980,3.065279 60.600468,11.326453 
	C70.596054,17.241383 76.320816,26.160706 77.045624,38.090179 
	C77.599594,47.207752 75.689453,55.489239 69.776588,63.025372 
	C78.354965,71.513550 86.932022,80.000420 95.729706,88.705605 
	C93.170372,91.145966 91.166161,93.057014 88.683800,95.423988 
	C86.300476,92.960739 83.901031,90.480843 81.251297,87.751175 
M30.872530,67.978653 
	C35.497478,68.652435 40.120499,69.874489 44.747757,69.890747 
	C55.842178,69.929741 63.973804,64.261871 68.933495,54.707985 
	C73.861473,45.215168 73.731873,35.129391 68.237900,25.917002 
	C62.024456,15.498187 52.327141,11.139365 40.148064,11.954821 
	C28.868681,12.710037 19.525656,20.093342 16.131821,29.068132 
	C10.045045,45.164249 15.325741,58.923058 30.872530,67.978653 
z"/>
<path fill="#000000" opacity="1.000000" stroke="none" 
	d="
M30.505886,67.823387 
	C15.325741,58.923058 10.045045,45.164249 16.131821,29.068132 
	C19.525656,20.093342 28.868681,12.710037 40.148064,11.954821 
	C52.327141,11.139365 62.024456,15.498187 68.237900,25.917002 
	C73.731873,35.129391 73.861473,45.215168 68.933495,54.707985 
	C63.973804,64.261871 55.842178,69.929741 44.747757,69.890747 
	C40.120499,69.874489 35.497478,68.652435 30.505886,67.823387 
z"/>
</svg>
