<svg version="1.1" id="Layer_1" xmlns="http://www.w3.org/2000/svg" xmlns:xlink="http://www.w3.org/1999/xlink" x="0px" y="0px"
	 width="100%" viewBox="0 0 100 100" enable-background="new 0 0 100 100" xml:space="preserve">
<path fill="none" opacity="1.000000" stroke="none" 
	d="
M58.000000,101.000000 
	C39.666668,101.000000 21.832933,100.941803 4.000474,101.066513 
	C1.498327,101.084007 0.927402,100.500175 0.935280,97.999802 
	C1.034011,66.666786 1.034007,35.333248 0.935287,4.000232 
	C0.927410,1.499951 1.499756,0.927397 4.000175,0.935277 
	C35.333191,1.034015 66.666733,1.034005 97.999748,0.935291 
	C100.499985,0.927414 101.072601,1.499694 101.064720,4.000157 
	C100.965973,35.333176 100.965988,66.666718 101.064697,97.999733 
	C101.072578,100.499931 100.503448,101.095055 97.999321,101.067589 
	C84.834213,100.923187 71.666687,101.000000 58.000000,101.000000 
z"/>
<path fill="#FFFFFF" opacity="1.000000" stroke="none" 
	d="
M94.686188,85.764236 
	C85.524750,95.024422 85.524055,95.025108 76.507393,86.006348 
	C72.271988,81.769974 67.890961,77.665520 63.868633,73.235519 
	C61.839054,71.000237 60.103878,70.875534 57.503616,72.013084 
	C36.437237,81.229141 13.286088,70.341759 9.304664,47.849907 
	C5.793044,28.012077 15.411566,11.689860 35.731644,7.401403 
	C57.760975,2.752217 76.854675,18.172373 77.088043,39.702618 
	C77.162331,46.556641 76.239784,52.995445 72.589104,58.783989 
	C71.142677,61.077446 71.690163,62.286926 73.394981,63.961441 
	C80.636703,71.074471 87.756287,78.311852 94.686188,85.764236 
z"/>
<path fill="#000000" opacity="1.000000" stroke="none" 
	d="
M50.774696,65.072273 
	C34.173252,70.144722 18.000143,58.328766 18.000000,41.497257 
	C17.999897,29.481094 24.393684,20.471548 35.472980,16.896782 
	C53.690086,11.018981 69.061783,27.235920 68.168274,40.339245 
	C67.368729,52.064571 61.916321,61.043034 50.774696,65.072273 
z"/>
</svg>
