<svg version="1.1" id="Layer_1" xmlns="http://www.w3.org/2000/svg" xmlns:xlink="http://www.w3.org/1999/xlink" x="0px" y="0px"
	 width="100%" viewBox="0 0 50 50" enable-background="new 0 0 50 50" xml:space="preserve">
<path fill="none" opacity="1.000000" stroke="none" 
	d="
M25.000057,51.000000 
	C17.517612,51.000000 10.533344,50.911900 3.553834,51.055298 
	C1.538206,51.096706 0.911965,50.807766 0.931700,48.564625 
	C1.063326,33.603378 1.022903,18.640329 0.969357,3.678114 
	C0.963068,1.920743 0.799499,0.891706 3.310342,0.918821 
	C18.437235,1.082179 33.567673,1.082745 48.694550,0.918528 
	C51.214973,0.891166 51.035728,1.935049 51.029682,3.683008 
	C50.977921,18.645237 50.935986,33.608288 51.068790,48.569519 
	C51.088787,50.822166 50.445816,51.089619 48.441444,51.054333 
	C40.796360,50.919735 33.147495,51.000000 25.000057,51.000000 
z"/>
<path fill="#DB2777" opacity="1.000000" stroke="none" 
	d="
M39.135002,30.662609 
	C36.626789,36.621468 30.705484,38.171627 26.505695,41.739124 
	C25.556973,42.545013 24.616219,41.329296 23.875895,40.909435 
	C15.116877,35.941914 8.635571,29.536236 10.589563,18.122585 
	C12.057535,17.068367 12.995317,15.988473 13.794695,14.397585 
	C16.745361,12.423305 19.535597,12.523287 22.432022,13.821157 
	C23.911755,14.484217 25.381557,15.378147 27.546677,14.937013 
	C35.914249,13.093029 40.114964,15.290915 41.401360,21.884809 
	C42.022205,25.067183 39.799549,27.455278 39.135002,30.662609 
z"/>
<path fill="#DB2777" opacity="1.000000" stroke="none" 
	d="
M39.435837,30.886974 
	C38.226620,29.830240 38.446651,28.608105 38.890434,27.265127 
	C41.681332,18.819263 38.584461,14.901990 29.545216,15.348529 
	C29.224161,15.364388 28.895849,15.233331 28.261066,15.031830 
	C31.537895,11.727680 35.228268,12.523731 38.634056,14.988128 
	C42.396049,17.710266 43.126427,21.560728 42.057899,25.992132 
	C41.621586,27.801622 40.971134,29.365183 39.435837,30.886974 
z"/>
<path fill="#DB2776" opacity="1.000000" stroke="none" 
	d="
M13.671585,14.196855 
	C13.852338,15.830844 13.317274,17.230766 11.208507,17.866365 
	C10.833742,16.141197 12.268819,15.303314 13.671585,14.196855 
z"/>
</svg>
