<svg version="1.1" id="Layer_1" xmlns="http://www.w3.org/2000/svg" xmlns:xlink="http://www.w3.org/1999/xlink" x="0px" y="0px"
	 width="100%" viewBox="0 0 100 100" enable-background="new 0 0 100 100" xml:space="preserve">
<path fill="none" opacity="1.000000" stroke="none" 
	d="
M101.000000,35.000000 
	C101.000000,56.333328 100.949715,77.166939 101.065971,97.999619 
	C101.079933,100.501068 100.500214,101.072594 97.999817,101.064713 
	C66.666801,100.965973 35.333267,100.965988 4.000252,101.064697 
	C1.500030,101.072578 0.927392,100.500320 0.935272,97.999847 
	C1.034018,66.666832 1.034002,35.333298 0.935297,4.000282 
	C0.927421,1.500128 1.499579,0.927386 4.000124,0.935267 
	C35.333138,1.034021 66.666672,1.033997 97.999687,0.935303 
	C100.499771,0.927428 101.108940,1.494507 101.068359,4.000997 
	C100.903809,14.165036 101.000000,24.333296 101.000000,35.000000 
z"/>
<path fill="#FFFFFF" opacity="1.000000" stroke="none" 
	d="
M9.000000,62.000404 
	C9.000000,55.178963 9.000000,48.857368 9.000000,42.817211 
	C8.302976,41.783001 7.707916,42.083107 7.146413,42.410389 
	C5.772788,43.211037 3.985383,43.688400 3.186446,42.307415 
	C2.371744,40.899178 2.987748,39.121552 4.517088,37.946140 
	C9.666860,33.988152 14.794930,30.001741 19.914425,26.004591 
	C28.492321,19.307224 37.150372,12.707684 45.589970,5.839976 
	C50.096897,2.172468 51.996540,2.091620 56.509884,5.964230 
	C60.206112,9.135723 64.107086,12.080872 68.051384,14.941474 
	C68.927795,15.577088 70.993629,18.768757 71.228249,14.051982 
	C71.337753,11.850639 74.308105,13.110293 75.905098,13.071080 
	C82.997658,12.896921 83.735664,13.091716 82.795425,19.880251 
	C81.833336,26.826557 86.523445,29.383356 90.467339,32.789406 
	C92.157288,34.248886 94.280411,35.198128 96.029083,36.600670 
	C97.820564,38.037544 100.139946,39.895103 98.785995,42.305038 
	C97.590767,44.432449 95.279770,42.189636 93.000000,42.054401 
	C93.000000,57.114502 93.000000,72.059738 93.000000,87.004974 
	C93.000000,95.000000 93.000000,95.000000 84.986343,95.000000 
	C61.158829,95.000000 37.330551,94.905602 13.504586,95.097839 
	C9.764719,95.128014 8.778705,94.238258 8.900414,90.490158 
	C9.203098,81.168938 9.000001,71.831299 9.000000,62.000404 
z"/>
<path fill="#000000" opacity="1.000000" stroke="none" 
	d="
M78.777985,30.277174 
	C85.493546,34.327660 89.932892,38.573292 89.259819,47.474495 
	C88.257637,60.728210 88.925140,74.114601 89.061501,87.442696 
	C89.089615,90.190140 88.460381,91.194817 85.543106,91.068466 
	C80.054985,90.830757 74.540474,90.813492 69.054176,91.071327 
	C65.865601,91.221176 64.833908,90.396950 64.913261,87.038460 
	C65.153267,76.880402 64.904549,66.711548 65.062759,56.550274 
	C65.105743,53.789898 64.438286,52.841187 61.536556,52.930405 
	C54.545185,53.145370 47.539265,53.127361 40.546467,52.936974 
	C37.775356,52.861530 36.880661,53.577553 36.930428,56.467049 
	C37.108303,66.794350 36.904804,77.128021 37.063255,87.455956 
	C37.105747,90.225502 36.424194,91.181862 33.529797,91.068039 
	C27.707144,90.839066 21.866308,90.893974 16.038912,91.051445 
	C13.679032,91.115219 12.927999,90.475349 12.944947,88.026245 
	C13.053322,72.364838 13.093848,56.701447 12.948455,41.040642 
	C12.898531,35.663025 17.714550,34.686768 20.581163,32.261940 
	C29.123106,25.036415 38.202808,18.450413 46.945240,11.455615 
	C49.312469,9.561600 51.369682,8.403650 54.091454,10.576455 
	C62.225056,17.069569 70.378830,23.537409 78.777985,30.277174 
z"/>
<path fill="#000000" opacity="1.000000" stroke="none" 
	d="
M61.000000,84.911743 
	C61.734840,89.718849 60.353371,91.715492 55.580807,91.069374 
	C50.859772,90.430222 44.474495,93.059837 41.750023,90.062965 
	C39.400726,87.478775 41.052155,81.219841 41.010994,76.584862 
	C40.963646,71.253296 41.139629,65.915802 40.941818,60.591164 
	C40.841171,57.881973 41.450073,56.684700 44.426033,56.953114 
	C49.841122,57.441521 56.919178,54.741592 60.218441,58.029160 
	C62.831982,60.633430 60.934315,67.790359 60.991577,72.926239 
	C61.034306,76.758133 61.000000,80.590874 61.000000,84.911743 
z"/>
<path fill="#000000" opacity="1.000000" stroke="none" 
	d="
M75.003510,18.763407 
	C75.241753,16.096138 77.324631,16.742508 77.986374,17.146120 
	C80.071526,18.417887 78.575851,20.651098 79.031136,22.608080 
	C76.968712,22.068497 74.981117,21.804640 75.003510,18.763407 
z"/>
</svg>
