<svg version="1.1" id="Layer_1" xmlns="http://www.w3.org/2000/svg" xmlns:xlink="http://www.w3.org/1999/xlink" x="0px" y="0px"
	 width="100%" viewBox="0 0 100 100" enable-background="new 0 0 100 100" xml:space="preserve">
<path fill="#000000" opacity="1.000000" stroke="none" 
	d="
M57.000000,101.000000 
	C38.000004,101.000000 19.500006,101.000000 1.000007,101.000000 
	C1.000005,67.666679 1.000005,34.333351 1.000003,1.000014 
	C33.166653,1.000000 65.333519,1.051096 97.499596,0.915359 
	C100.483589,0.902768 101.098076,1.515941 101.084816,4.500330 
	C100.947044,35.499714 100.947060,66.500183 101.084785,97.499565 
	C101.098045,100.483650 100.489532,101.134224 97.498711,101.088501 
	C84.168472,100.884682 70.833351,101.000000 57.000000,101.000000 
z"/>
<path fill="#FFFFFF" opacity="1.000000" stroke="none" 
	d="
M46.356529,5.149728 
	C50.014759,1.991495 52.897373,2.930278 56.129467,5.519670 
	C68.940376,15.783138 81.910278,25.848179 94.831215,35.974068 
	C95.068230,36.159813 95.519005,36.100445 95.716797,36.304203 
	C97.276260,37.910740 100.008499,39.240471 98.869003,41.921177 
	C97.544296,45.037582 95.224846,41.733242 93.000000,42.254623 
	C93.000000,57.984562 92.783241,73.790451 93.131950,89.583862 
	C93.236702,94.328072 91.748383,95.331177 87.396553,95.094704 
	C80.750107,94.733543 74.052284,94.711266 67.409966,95.108398 
	C63.432400,95.346207 62.819679,93.925507 62.916161,90.389465 
	C63.166061,81.230438 62.898006,72.058250 63.060680,62.895290 
	C63.111004,60.060688 62.738602,58.717857 59.377258,58.911140 
	C53.729771,59.235889 48.041782,59.182629 42.387218,58.926579 
	C39.353130,58.789192 38.903328,59.978760 38.943542,62.628860 
	C39.087643,72.125824 38.895145,81.628166 39.063519,91.124329 
	C39.114407,93.994408 38.681374,95.220093 35.359154,95.091187 
	C27.871098,94.800644 20.354736,94.779869 12.868763,95.096077 
	C9.312085,95.246315 8.913157,93.853523 8.939585,90.852364 
	C9.071651,75.854874 8.993194,60.855572 9.007161,45.856926 
	C9.009315,43.544395 9.550361,40.826694 5.626495,42.918793 
	C4.978070,43.264515 3.448324,43.489056 3.105861,42.214630 
	C2.714439,40.758011 2.858003,39.260818 4.263600,38.186829 
	C8.259077,35.133953 12.257656,32.084179 16.209145,28.974886 
	C26.175514,21.132690 36.116711,13.258500 46.356529,5.149728 
z"/>
<path fill="#FFFFFF" opacity="1.000000" stroke="none" 
	d="
M71.491066,13.964711 
	C71.177887,12.673393 70.285309,11.299525 72.200325,11.024217 
	C72.686905,10.954264 73.192093,11.026257 73.686607,10.997088 
	C83.389114,10.424791 83.389053,10.423706 82.802094,23.169151 
	C78.918411,20.014437 75.358688,17.122881 71.491066,13.964711 
z"/>
</svg>