<svg version="1.1" id="Layer_1" xmlns="http://www.w3.org/2000/svg" xmlns:xlink="http://www.w3.org/1999/xlink" x="0px" y="0px"
	 width="100%" viewBox="0 0 512 512" enable-background="new 0 0 512 512" xml:space="preserve">
<path fill="#FFFFFF" opacity="1.000000" stroke="none" 
	d="
M513.000000,510.000000 
	C513.000000,510.997223 513.000000,511.994415 513.000000,512.995850 
	C461.979095,513.000000 410.958221,513.000000 359.467194,512.633423 
	C349.670319,498.906281 340.315552,485.565155 331.023712,472.180359 
	C318.511078,454.156067 306.133118,436.037750 293.541565,418.068939 
	C275.284851,392.015747 256.892426,366.057617 238.550186,340.064392 
	C232.818298,331.941620 227.061432,323.836487 221.009033,315.289764 
	C218.274734,318.099701 215.859207,320.374603 213.679611,322.856720 
	C202.213699,335.914154 190.829865,349.043610 179.370697,362.106964 
	C173.844360,368.406891 168.165985,374.573517 162.642975,380.876312 
	C151.300140,393.820587 140.042709,406.839783 128.695511,419.780273 
	C123.060768,426.206146 117.236992,432.466614 111.618866,438.906738 
	C100.851067,451.249969 90.230835,463.722260 79.431618,476.037720 
	C70.979271,485.676849 62.288002,495.106506 53.839722,504.749115 
	C51.631180,507.269897 49.932739,510.237579 48.000004,513.000000 
	C33.319588,513.000000 18.639091,513.019287 3.958942,512.957092 
	C2.971296,512.952881 1.986255,512.333313 1.365277,511.498413 
	C9.563113,502.088837 17.397186,493.182190 25.227865,484.272491 
	C34.861191,473.311768 44.482353,462.340332 54.125748,451.388458 
	C66.592041,437.230652 79.084335,423.095795 91.547951,408.935608 
	C101.079338,398.106750 110.581108,387.251801 120.100441,376.412292 
	C132.219330,362.612701 144.294479,348.774292 156.478165,335.032135 
	C167.812637,322.247833 179.292206,309.592224 190.647781,296.826477 
	C193.893784,293.177368 196.930496,289.342041 199.991135,285.678345 
	C199.270523,284.505554 198.731476,283.508362 198.082138,282.589050 
	C181.129822,258.588074 164.141998,234.612198 147.211975,210.595551 
	C133.918213,191.737244 120.682556,172.837952 107.440651,153.943161 
	C87.620605,125.662048 67.785469,97.391418 48.018131,69.073486 
	C33.249599,47.916656 18.591141,26.682980 3.811440,5.533996 
	C3.263852,4.750426 1.954406,4.499271 1.000000,4.000000 
	C1.000000,3.002794 1.000000,2.005589 1.000000,1.004192 
	C52.020893,1.000000 103.041786,1.000000 154.243561,1.290407 
	C163.899551,14.880070 173.421158,28.146526 182.839188,41.486084 
	C197.825058,62.711849 212.790863,83.952133 227.675476,105.248947 
	C245.972015,131.427536 264.263367,157.610886 282.324738,183.951416 
	C284.963806,187.800201 286.488495,187.467529 289.180420,184.389679 
	C297.398041,174.993835 305.769928,165.732986 314.068573,156.407791 
	C319.195312,150.646851 324.326813,144.889740 329.405365,139.086426 
	C340.844208,126.015106 352.228363,112.895905 363.681519,99.837189 
	C369.204895,93.539574 374.883728,87.378242 380.405487,81.079239 
	C394.232971,65.305412 407.978455,49.459702 421.821167,33.699291 
	C429.948334,24.446203 438.243958,15.340816 446.344574,6.064850 
	C447.564026,4.668512 448.131134,2.702494 449.000000,0.999999 
	C464.687561,1.000000 480.375122,1.000000 496.460876,1.331815 
	C490.219177,8.969203 483.551483,16.249750 476.948303,23.588392 
	C471.788727,29.322666 466.675140,35.099216 461.601227,40.909489 
	C450.391296,53.746216 439.251801,66.644585 428.018250,79.460533 
	C422.276093,86.011528 416.318970,92.374336 410.589813,98.936424 
	C399.818604,111.273613 389.204285,123.747971 378.406769,136.061890 
	C369.955780,145.699738 361.238068,155.103897 352.797333,164.750519 
	C339.856079,179.540634 327.170502,194.555801 314.141235,209.267151 
	C306.833466,217.518372 306.493805,217.417679 313.007599,226.772095 
	C326.105408,245.581772 339.363403,264.279877 352.541351,283.033844 
	C372.314575,311.173889 392.082367,339.317749 411.840179,367.468628 
	C429.831024,393.101929 447.863983,418.705902 465.769012,444.399017 
	C480.614075,465.701141 495.285889,487.123962 510.110046,508.440765 
	C510.667694,509.242615 512.018677,509.492767 513.000000,510.000000 
M241.983276,189.471481 
	C241.369034,188.527618 240.792984,187.556229 240.134979,186.643936 
	C224.530899,165.009491 208.816437,143.453827 193.332520,121.733788 
	C174.024292,94.649139 154.944550,67.401596 135.628174,40.322792 
	C134.083755,38.157726 131.494659,35.267948 129.347015,35.230358 
	C107.744637,34.852245 86.133034,35.000229 64.121765,35.000229 
	C64.787476,36.317894 65.159210,37.366982 65.780640,38.237923 
	C81.640862,60.466202 97.533875,82.671074 113.406670,104.890388 
	C124.206871,120.008888 134.958572,135.162079 145.779526,150.265701 
	C161.498154,172.205383 177.292419,194.090927 192.990494,216.045288 
	C202.289734,229.050644 211.413071,242.181763 220.709518,255.189133 
	C235.932648,276.488983 251.263855,297.711578 266.488556,319.010315 
	C276.256134,332.674805 285.875275,346.445374 295.630615,360.118713 
	C311.489105,382.346405 327.422058,404.520996 343.290558,426.741577 
	C355.681396,444.092407 367.981201,461.508575 380.473236,478.785980 
	C381.344055,479.990417 383.471802,480.897491 385.021637,480.907349 
	C406.496002,481.044281 427.971527,480.999969 450.278076,480.999969 
	C380.794037,383.685303 311.647003,286.842651 241.983276,189.471481 
z"/>
<path fill="#000000" opacity="1.000000" stroke="none" 
	d="
M513.000000,509.531342 
	C512.018677,509.492767 510.667694,509.242615 510.110046,508.440765 
	C495.285889,487.123962 480.614075,465.701141 465.769012,444.399017 
	C447.863983,418.705902 429.831024,393.101929 411.840179,367.468628 
	C392.082367,339.317749 372.314575,311.173889 352.541351,283.033844 
	C339.363403,264.279877 326.105408,245.581772 313.007599,226.772095 
	C306.493805,217.417679 306.833466,217.518372 314.141235,209.267151 
	C327.170502,194.555801 339.856079,179.540634 352.797333,164.750519 
	C361.238068,155.103897 369.955780,145.699738 378.406769,136.061890 
	C389.204285,123.747971 399.818604,111.273613 410.589813,98.936424 
	C416.318970,92.374336 422.276093,86.011528 428.018250,79.460533 
	C439.251801,66.644585 450.391296,53.746216 461.601227,40.909489 
	C466.675140,35.099216 471.788727,29.322666 476.948303,23.588392 
	C483.551483,16.249750 490.219177,8.969203 496.929535,1.331815 
	C502.328888,1.000000 507.657745,1.000000 512.993286,1.000000 
	C513.000000,170.354233 513.000000,339.708466 513.000000,509.531342 
z"/>
<path fill="#000000" opacity="1.000000" stroke="none" 
	d="
M1.000000,4.468657 
	C1.954406,4.499271 3.263852,4.750426 3.811440,5.533996 
	C18.591141,26.682980 33.249599,47.916656 48.018131,69.073486 
	C67.785469,97.391418 87.620605,125.662048 107.440651,153.943161 
	C120.682556,172.837952 133.918213,191.737244 147.211975,210.595551 
	C164.141998,234.612198 181.129822,258.588074 198.082138,282.589050 
	C198.731476,283.508362 199.270523,284.505554 199.991135,285.678345 
	C196.930496,289.342041 193.893784,293.177368 190.647781,296.826477 
	C179.292206,309.592224 167.812637,322.247833 156.478165,335.032135 
	C144.294479,348.774292 132.219330,362.612701 120.100441,376.412292 
	C110.581108,387.251801 101.079338,398.106750 91.547951,408.935608 
	C79.084335,423.095795 66.592041,437.230652 54.125748,451.388458 
	C44.482353,462.340332 34.861191,473.311768 25.227865,484.272491 
	C17.397186,493.182190 9.563113,502.088837 1.365277,510.998413 
	C1.000000,342.312439 1.000000,173.624878 1.000000,4.468657 
z"/>
<path fill="#000000" opacity="1.000000" stroke="none" 
	d="
M48.468662,513.000000 
	C49.932739,510.237579 51.631180,507.269897 53.839722,504.749115 
	C62.288002,495.106506 70.979271,485.676849 79.431618,476.037720 
	C90.230835,463.722260 100.851067,451.249969 111.618866,438.906738 
	C117.236992,432.466614 123.060768,426.206146 128.695511,419.780273 
	C140.042709,406.839783 151.300140,393.820587 162.642975,380.876312 
	C168.165985,374.573517 173.844360,368.406891 179.370697,362.106964 
	C190.829865,349.043610 202.213699,335.914154 213.679611,322.856720 
	C215.859207,320.374603 218.274734,318.099701 221.009033,315.289764 
	C227.061432,323.836487 232.818298,331.941620 238.550186,340.064392 
	C256.892426,366.057617 275.284851,392.015747 293.541565,418.068939 
	C306.133118,436.037750 318.511078,454.156067 331.023712,472.180359 
	C340.315552,485.565155 349.670319,498.906281 358.998535,512.633423 
	C255.645767,513.000000 152.291550,513.000000 48.468662,513.000000 
z"/>
<path fill="#000000" opacity="1.000000" stroke="none" 
	d="
M448.531342,0.999999 
	C448.131134,2.702494 447.564026,4.668512 446.344574,6.064850 
	C438.243958,15.340816 429.948334,24.446203 421.821167,33.699291 
	C407.978455,49.459702 394.232971,65.305412 380.405487,81.079239 
	C374.883728,87.378242 369.204895,93.539574 363.681519,99.837189 
	C352.228363,112.895905 340.844208,126.015106 329.405365,139.086426 
	C324.326813,144.889740 319.195312,150.646851 314.068573,156.407791 
	C305.769928,165.732986 297.398041,174.993835 289.180420,184.389679 
	C286.488495,187.467529 284.963806,187.800201 282.324738,183.951416 
	C264.263367,157.610886 245.972015,131.427536 227.675476,105.248947 
	C212.790863,83.952133 197.825058,62.711849 182.839188,41.486084 
	C173.421158,28.146526 163.899551,14.880070 154.712219,1.290407 
	C252.687561,1.000000 350.375122,1.000000 448.531342,0.999999 
z"/>
<path fill="#000000" opacity="1.000000" stroke="none" 
	d="
M242.241638,189.735748 
	C311.647003,286.842651 380.794037,383.685303 450.278076,480.999969 
	C427.971527,480.999969 406.496002,481.044281 385.021637,480.907349 
	C383.471802,480.897491 381.344055,479.990417 380.473236,478.785980 
	C367.981201,461.508575 355.681396,444.092407 343.290558,426.741577 
	C327.422058,404.520996 311.489105,382.346405 295.630615,360.118713 
	C285.875275,346.445374 276.256134,332.674805 266.488556,319.010315 
	C251.263855,297.711578 235.932648,276.488983 220.709518,255.189133 
	C211.413071,242.181763 202.289734,229.050644 192.990494,216.045288 
	C177.292419,194.090927 161.498154,172.205383 145.779526,150.265701 
	C134.958572,135.162079 124.206871,120.008888 113.406670,104.890388 
	C97.533875,82.671074 81.640862,60.466202 65.780640,38.237923 
	C65.159210,37.366982 64.787476,36.317894 64.121765,35.000229 
	C86.133034,35.000229 107.744637,34.852245 129.347015,35.230358 
	C131.494659,35.267948 134.083755,38.157726 135.628174,40.322792 
	C154.944550,67.401596 174.024292,94.649139 193.332520,121.733788 
	C208.816437,143.453827 224.530899,165.009491 240.134979,186.643936 
	C240.792984,187.556229 241.369034,188.527618 242.241638,189.735748 
z"/>
</svg>