<svg width="18" height="17" viewBox="0 0 18 17" fill="none" xmlns="http://www.w3.org/2000/svg">
<path d="M9 16.0317H8.98833C6.83583 15.9917 0.625 10.38 0.625 5.065C0.625 2.51167 2.72917 0.27 5.1275 0.27C7.03583 0.27 8.31917 1.58667 8.99917 2.545C9.6775 1.58833 10.9608 0.27 12.87 0.27C15.27 0.27 17.3733 2.51167 17.3733 5.06583C17.3733 10.3792 11.1617 15.9908 9.00917 16.03H9V16.0317ZM5.12833 1.52083C3.395 1.52083 1.87583 3.1775 1.87583 5.06667C1.87583 9.85 7.7375 14.73 9.00083 14.7817C10.2658 14.73 16.1258 9.85083 16.1258 5.06667C16.1258 3.1775 14.6067 1.52083 12.8733 1.52083C10.7667 1.52083 9.59 3.9675 9.58 3.99167C9.38833 4.46 8.61667 4.46 8.42417 3.99167C8.4125 3.96667 7.23667 1.52083 5.12917 1.52083H5.12833Z" fill="#6E767D"/>
</svg>
