<svg width="20" height="21" viewBox="0 0 20 21" fill="none" xmlns="http://www.w3.org/2000/svg">
<path d="M19.697 15.468C19.677 15.452 17.557 13.828 17.594 9.438C17.614 6.906 16.782 4.656 15.247 3.103C13.872 1.71 12.01 0.94 10.005 0.93H9.99204C7.98804 0.94 6.12604 1.71 4.75004 3.104C3.21604 4.657 2.38204 6.906 2.40404 9.438C2.44104 13.768 0.384036 15.405 0.302036 15.468C0.0420358 15.661 -0.0639643 15.998 0.0370357 16.306C0.139036 16.614 0.427036 16.821 0.749036 16.821H5.66904C5.77104 19.131 7.66604 20.981 9.99904 20.981C12.332 20.981 14.225 19.131 14.326 16.821H19.248C19.57 16.821 19.858 16.615 19.958 16.307C20.061 16 19.955 15.662 19.695 15.469L19.697 15.468ZM10 19.478C8.49504 19.478 7.27004 18.301 7.17204 16.82H12.828C12.728 18.3 11.505 19.48 10 19.48V19.478ZM2.38004 15.32C3.12004 14.188 3.92804 12.292 3.90404 9.424C3.88604 7.264 4.54804 5.442 5.81704 4.157C6.91004 3.05 8.39704 2.437 10 2.43C11.603 2.438 13.087 3.05 14.18 4.158C15.45 5.443 16.113 7.264 16.095 9.425C16.071 12.293 16.88 14.19 17.62 15.321H2.38004V15.32Z" fill="#D9D9D9"/>
</svg>
