<svg version="1.1" id="Layer_1" xmlns="http://www.w3.org/2000/svg" xmlns:xlink="http://www.w3.org/1999/xlink" x="0px" y="0px"
	 width="100%" viewBox="0 0 100 100" enable-background="new 0 0 100 100" xml:space="preserve">
<path fill="none" opacity="1.000000" stroke="none" 
	d="
M44.220795,100.670341 
	C30.531656,101.000000 17.063038,100.958366 3.595273,101.046791 
	C1.669020,101.059433 0.921919,100.934349 0.929587,98.606461 
	C1.034198,66.848114 1.039456,35.089169 0.923011,3.330906 
	C0.913967,0.864283 1.859531,0.956574 3.657818,0.965130 
	C17.125856,1.029209 30.594339,1.000000 44.531342,1.000000 
	C45.905090,7.964088 44.164051,11.770465 38.545631,14.781035 
	C31.017733,18.814777 27.333927,25.158911 26.211710,33.548103 
	C25.417288,39.486835 25.887138,45.546337 24.287853,51.389439 
	C22.535046,57.793449 19.732861,63.398640 14.256308,67.627235 
	C8.601114,71.993759 9.457400,77.404907 16.034374,80.257637 
	C21.616583,82.678894 27.663984,83.070419 33.626667,83.619522 
	C39.582191,84.167953 40.144623,84.192024 40.228474,89.912872 
	C40.290588,94.150375 44.279377,96.395287 44.220795,100.670341 
z"/>
<path fill="none" opacity="1.000000" stroke="none" 
	d="
M56.774185,1.326443 
	C70.634621,1.000000 84.269531,1.045388 97.903557,0.954878 
	C100.149940,0.939966 101.094124,1.138075 101.082733,3.890126 
	C100.952621,35.315723 100.945007,66.742310 101.091560,98.167755 
	C101.105080,101.066917 99.954781,101.041443 97.845741,101.031296 
	C84.876518,100.968857 71.906845,101.000000 58.468658,101.000000 
	C57.222893,100.088051 57.330299,99.022766 57.975819,98.244591 
	C60.642780,95.029549 61.790459,91.391014 61.942486,87.220108 
	C62.054066,84.158836 64.642723,83.848419 67.083725,83.699898 
	C72.244759,83.385887 77.359856,82.728859 82.384720,81.483604 
	C84.493256,80.961067 86.548103,80.274445 88.316650,78.941132 
	C92.221458,75.997292 92.890503,71.744865 89.075935,68.831093 
	C79.689903,61.661549 76.657631,51.999126 76.556458,40.787220 
	C76.525085,37.310947 75.985283,33.791027 75.265717,30.394112 
	C73.938995,24.130913 70.968231,18.357204 64.934227,15.852388 
	C58.127789,13.026927 56.875000,7.831594 56.774185,1.326443 
z"/>
<path fill="#FFFFFF" opacity="1.000000" stroke="none" 
	d="
M56.539364,1.000000 
	C57.474464,4.181210 59.920326,6.893953 59.050407,10.429749 
	C58.593948,12.285018 60.388363,11.726517 61.320618,12.142015 
	C70.974365,16.444611 76.183083,23.527094 77.201782,34.415974 
	C77.971443,42.642887 77.238609,51.320896 81.916916,58.950859 
	C83.651237,61.779408 85.399704,64.262344 88.265152,66.097618 
	C91.376785,68.090576 93.939880,70.686058 93.009560,75.016312 
	C92.185593,78.851486 89.227493,80.850250 86.041176,81.871033 
	C79.720490,83.895981 73.151222,84.989052 66.458664,85.000633 
	C64.694481,85.003685 62.437515,84.492737 63.021626,87.524933 
	C64.103279,93.139900 60.991528,96.862396 57.712982,100.710861 
	C53.643101,101.000000 49.286201,101.000000 44.464653,101.000000 
	C45.097469,99.487770 43.521088,99.006783 42.835083,98.417259 
	C39.867710,95.867218 38.375668,92.752922 39.025871,88.854469 
	C39.617493,85.307281 37.860699,84.886749 34.867954,84.932152 
	C28.359934,85.030884 21.959560,83.811913 15.802973,81.827675 
	C12.754017,80.845009 9.923527,78.833336 9.035043,75.347015 
	C8.038100,71.435112 9.929078,68.437164 13.042041,66.558662 
	C21.055475,61.723007 23.049740,53.740681 23.838219,45.508686 
	C24.366819,39.989880 24.416353,34.361271 25.630526,28.976404 
	C27.494759,20.708517 32.975605,15.122491 40.833134,12.212687 
	C42.674210,11.530899 43.211624,10.964057 42.994709,9.302354 
	C42.605583,6.321342 43.680008,3.850994 45.295059,1.328838 
	C48.692909,1.000000 52.385818,1.000000 56.539364,1.000000 
z"/>
<path fill="#000000" opacity="1.000000" stroke="none" 
	d="
M41.803902,17.668819 
	C44.401196,15.212777 46.943958,16.576918 49.356453,17.034836 
	C52.840385,17.696119 56.112339,15.418501 59.776855,16.914099 
	C65.666176,19.317703 71.132706,27.066587 72.158737,33.242027 
	C73.329674,40.289711 72.594788,47.425144 74.606400,54.504787 
	C76.665031,61.749935 80.700943,67.148689 86.207581,71.497932 
	C89.574554,74.157227 87.917610,74.721390 85.598572,76.065132 
	C81.455048,78.466049 76.743355,79.333809 72.245232,79.711769 
	C64.161407,80.391006 55.985806,79.988922 47.848476,80.016510 
	C43.020927,80.032883 38.187393,80.153725 33.367130,79.961792 
	C27.701431,79.736198 22.160948,78.629478 16.919144,76.408081 
	C14.188216,75.250763 12.251797,74.156830 16.061853,71.278320 
	C25.300945,64.298164 28.692165,54.492783 29.101116,43.149815 
	C29.383934,35.305283 28.966394,26.990194 36.206589,21.219585 
	C37.874855,19.889938 39.350529,18.396910 41.803902,17.668819 
z"/>
<path fill="#000000" opacity="1.000000" stroke="none" 
	d="
M51.829529,95.999069 
	C47.936085,96.238853 45.369331,94.903473 44.216434,91.526344 
	C42.684650,87.039345 44.172947,85.049072 48.925720,85.000931 
	C49.589462,84.994209 50.286655,84.867004 50.911232,85.023537 
	C53.330685,85.629883 57.129673,83.146103 57.893154,87.431999 
	C58.656700,91.718231 57.249779,95.202293 51.829529,95.999069 
z"/>
<path fill="#000000" opacity="1.000000" stroke="none" 
	d="
M53.250450,11.251297 
	C51.173183,12.301506 49.379902,12.539810 48.298069,10.582419 
	C47.681080,9.466090 47.684200,8.092152 48.575844,6.922770 
	C49.547070,5.649016 51.041931,5.694651 52.150249,6.111422 
	C54.520809,7.002840 54.369759,8.959323 53.250450,11.251297 
z"/>
</svg>
