<svg version="1.1" id="Layer_1" xmlns="http://www.w3.org/2000/svg" xmlns:xlink="http://www.w3.org/1999/xlink" x="0px" y="0px"
	 width="100%" viewBox="0 0 100 100" enable-background="new 0 0 100 100" xml:space="preserve">
<path fill="none" opacity="1.000000" stroke="none" 
	d="
M44.214401,100.711426 
	C30.531656,101.000000 17.063038,100.958366 3.595273,101.046791 
	C1.669020,101.059433 0.921919,100.934349 0.929587,98.606461 
	C1.034198,66.848114 1.039456,35.089169 0.923011,3.330906 
	C0.913967,0.864283 1.859531,0.956574 3.657818,0.965130 
	C17.125856,1.029209 30.594339,1.000000 44.531342,1.000000 
	C46.567478,3.376120 44.565399,5.454074 44.397427,7.688324 
	C44.006550,12.887426 46.099514,15.588261 50.883846,15.642769 
	C55.428101,15.694541 57.546997,13.491295 57.660919,8.921217 
	C57.724201,6.382495 56.073296,4.152870 56.780540,1.292793 
	C70.634621,1.000000 84.269531,1.045388 97.903557,0.954878 
	C100.149940,0.939966 101.094124,1.138075 101.082733,3.890126 
	C100.952621,35.315723 100.945007,66.742310 101.091560,98.167755 
	C101.105080,101.066917 99.954781,101.041443 97.845741,101.031296 
	C84.876518,100.968857 71.906845,101.000000 58.468658,101.000000 
	C56.563644,98.636780 58.709038,97.394867 59.672691,95.821884 
	C60.632786,94.254707 61.933872,92.668900 61.149128,90.804291 
	C60.241325,88.647285 57.993866,89.203407 56.312061,89.384743 
	C52.331375,89.813950 48.385540,89.345215 44.426704,89.360321 
	C40.588665,89.374969 39.768921,90.933571 41.409962,94.376701 
	C42.379673,96.411285 44.757427,97.743607 44.214401,100.711426 
z"/>
<path fill="#FFFFFF" opacity="1.000000" stroke="none" 
	d="
M44.464653,101.000000 
	C45.011066,98.737137 42.622547,98.425362 41.747478,97.360397 
	C40.255764,95.544968 39.055130,93.815674 38.944630,91.325661 
	C38.836067,88.879234 39.328411,87.801231 42.136684,87.927948 
	C47.598618,88.174400 53.079563,87.991470 58.552597,88.002563 
	C63.416870,88.012428 64.147911,89.505066 62.306515,94.263855 
	C61.275307,96.928856 58.636040,98.055351 57.713036,100.711319 
	C53.643101,101.000000 49.286201,101.000000 44.464653,101.000000 
z"/>
<path fill="#FFFFFF" opacity="1.000000" stroke="none" 
	d="
M56.539364,1.000000 
	C57.740871,4.293515 59.632072,7.275394 59.056465,10.934661 
	C58.368610,15.307491 56.206810,16.960382 50.693184,17.029509 
	C46.305313,17.084520 43.459240,15.467295 43.007805,10.810161 
	C42.680740,7.436042 43.061596,4.238101 45.295155,1.329293 
	C48.692909,1.000000 52.385818,1.000000 56.539364,1.000000 
z"/>
<path fill="#FFFFFF" opacity="1.000000" stroke="none" 
	d="
M25.945784,28.177792 
	C27.856396,21.817781 31.234514,17.049284 36.796959,14.037896 
	C38.664455,13.026875 39.893436,12.433232 41.814091,15.031986 
	C47.121693,22.213470 54.780384,22.105602 60.285370,15.027137 
	C61.862743,12.998909 62.656036,12.701406 64.804184,13.926726 
	C72.447037,18.286276 76.062973,24.828390 77.113609,33.493420 
	C78.173058,42.231041 77.291878,51.382626 82.078430,59.484112 
	C83.797607,62.393894 85.811729,65.141617 88.583611,66.725830 
	C92.103264,68.737411 93.616478,71.252014 92.976227,75.089615 
	C92.362541,78.767952 89.358795,80.589485 86.423836,81.727661 
	C80.834457,83.895226 74.819931,84.772888 68.866402,84.914955 
	C56.887360,85.200813 44.869701,85.485771 32.920765,84.821495 
	C25.513296,84.409683 17.537558,84.447578 11.426804,78.892517 
	C7.663887,75.471794 7.807780,70.336990 11.988565,67.630280 
	C21.026258,61.779125 23.516815,52.931431 23.992437,43.021576 
	C24.225945,38.156300 24.685829,33.327465 25.945784,28.177792 
z"/>
</svg>
