<svg version="1.1" id="Layer_1" xmlns="http://www.w3.org/2000/svg" xmlns:xlink="http://www.w3.org/1999/xlink" x="0px" y="0px"
	 width="100%" viewBox="0 0 50 50" enable-background="new 0 0 50 50" xml:space="preserve">
<path fill="none" opacity="1.000000" stroke="none" 
	d="
M51.000000,46.000000 
	C51.000000,47.657833 51.000000,49.315662 51.000008,50.980122 
	C34.430523,50.986748 17.861034,50.986748 1.000000,50.986748 
	C1.000000,41.981194 1.000000,32.959255 1.222405,23.113373 
	C8.105975,27.143713 14.767139,31.998001 22.041500,37.299152 
	C22.574919,33.846516 23.005991,31.056337 23.429306,28.316359 
	C35.562546,27.230368 43.446365,32.180286 48.079758,43.471451 
	C48.516071,44.534702 50.001602,45.167404 51.000000,46.000000 
z"/>
<path fill="none" opacity="1.000000" stroke="none" 
	d="
M1.000000,19.000000 
	C1.000000,13.026371 1.000000,7.052742 1.000000,1.039556 
	C17.566971,1.039556 34.134048,1.039556 51.000000,1.039556 
	C51.000000,11.352313 51.000000,21.707499 50.749523,32.870323 
	C48.458370,30.409010 46.700882,26.915119 44.319389,23.916868 
	C38.993614,17.211823 31.490280,14.912629 22.999952,14.738861 
	C22.999952,13.093118 23.197023,11.749332 22.948984,10.493457 
	C22.653406,8.996879 21.976110,7.575691 21.464190,6.121841 
	C20.199472,6.693362 18.788576,7.067093 17.697456,7.873502 
	C14.428834,10.289229 11.391943,13.028322 8.054634,15.337782 
	C5.893331,16.833431 3.364271,17.797651 1.000000,19.000000 
z"/>
<path fill="#1D9BF0" opacity="1.000000" stroke="none" 
	d="
M1.000000,19.399996 
	C3.364271,17.797651 5.893331,16.833431 8.054634,15.337782 
	C11.391943,13.028322 14.428834,10.289229 17.697456,7.873502 
	C18.788576,7.067093 20.199472,6.693362 21.464190,6.121841 
	C21.976110,7.575691 22.653406,8.996879 22.948984,10.493457 
	C23.197023,11.749332 22.999952,13.093118 22.999952,14.738861 
	C31.490280,14.912629 38.993614,17.211823 44.319389,23.916868 
	C46.700882,26.915119 48.458370,30.409010 50.749523,33.338982 
	C51.000000,37.024544 51.000000,41.049088 51.000000,45.536816 
	C50.001602,45.167404 48.516071,44.534702 48.079758,43.471451 
	C43.446365,32.180286 35.562546,27.230368 23.429306,28.316359 
	C23.005991,31.056337 22.574919,33.846516 22.041500,37.299152 
	C14.767139,31.998001 8.105975,27.143713 1.222405,22.644714 
	C1.000000,21.933331 1.000000,20.866661 1.000000,19.399996 
z"/>
</svg>
