<svg width="20" height="20" viewBox="0 0 20 20" fill="none" xmlns="http://www.w3.org/2000/svg">
<path d="M19 5.337H15.07L15.442 1.065C15.478 0.652997 15.172 0.289997 14.76 0.252997C14.343 0.222997 13.984 0.522997 13.948 0.935997L13.565 5.336H7.245L7.615 1.066C7.652 0.652997 7.345 0.289997 6.935 0.252997C6.515 0.222997 6.158 0.522997 6.122 0.935997L5.74 5.336H1.782C1.368 5.336 1.032 5.673 1.032 6.086C1.032 6.499 1.368 6.836 1.782 6.836H5.61L5.06 13.163H1C0.586 13.163 0.25 13.499 0.25 13.913C0.25 14.327 0.586 14.663 1 14.663H4.93L4.558 18.935C4.522 19.347 4.828 19.71 5.24 19.747L5.306 19.75C5.691 19.75 6.018 19.455 6.052 19.064L6.435 14.664H12.755L12.385 18.934C12.349 19.347 12.655 19.71 13.067 19.747L13.133 19.75C13.518 19.75 13.845 19.455 13.879 19.064L14.261 14.664H18.218C18.631 14.664 18.968 14.327 18.968 13.914C18.968 13.501 18.631 13.164 18.218 13.164H14.39L14.94 6.837H19C19.414 6.837 19.75 6.501 19.75 6.087C19.75 5.673 19.414 5.337 19 5.337ZM12.885 13.163H6.565L7.115 6.837H13.435L12.885 13.163Z" fill="#D9D9D9"/>
</svg>
