<svg width="18" height="18" viewBox="0 0 18 18" fill="none" xmlns="http://www.w3.org/2000/svg">
<path d="M9.00001 5.84167C7.25834 5.84167 5.84167 7.25834 5.84167 9.00001C5.84167 10.7417 7.25834 12.1583 9.00001 12.1583C10.7417 12.1583 12.1583 10.7417 12.1583 9.00001C12.1583 7.25834 10.7417 5.84167 9.00001 5.84167ZM9.00001 10.9083C7.94834 10.9083 7.09167 10.0533 7.09167 9.00001C7.09167 7.94668 7.95001 7.09167 9.00001 7.09167C10.05 7.09167 10.9083 7.94668 10.9083 9.00001C10.9083 10.0533 10.0517 10.9083 9.00001 10.9083Z" fill="#EFF3F4"/>
<path d="M9.30004 17.6458H8.69837C7.71254 17.6458 6.90337 16.9058 6.81337 15.9258L6.80171 15.8033C6.78087 15.5642 6.62921 15.3592 6.40837 15.2667C6.17004 15.1667 5.92337 15.2125 5.74337 15.3625L5.64671 15.4433C4.92337 16.0475 3.76921 15.9958 3.09671 15.3267L2.67171 14.9017C1.97504 14.2017 1.92504 13.1067 2.55504 12.3517L2.63671 12.2533C2.79171 12.0683 2.82837 11.8175 2.73837 11.5975C2.64671 11.3708 2.44004 11.2192 2.20004 11.1975L2.07504 11.1858C1.09171 11.0967 0.352539 10.2858 0.352539 9.30084V8.69917C0.352539 7.71334 1.09254 6.90417 2.07254 6.81417L2.20254 6.80251C2.44004 6.78167 2.64421 6.63001 2.73754 6.40834C2.82921 6.18334 2.79171 5.93084 2.63754 5.74584L2.55921 5.64917C1.92837 4.89251 1.97754 3.79667 2.67337 3.09917L3.10004 2.67251C3.77004 2.00251 4.92337 1.95167 5.65004 2.55584L5.74671 2.63751C5.92837 2.79084 6.18671 2.82917 6.40504 2.73917C6.63004 2.64584 6.78171 2.44084 6.80254 2.20334L6.81421 2.07584C6.90337 1.09251 7.71421 0.354172 8.69921 0.354172H9.30087C10.2867 0.354172 11.0959 1.09417 11.1859 2.07417L11.1975 2.20417C11.2184 2.44167 11.3692 2.64584 11.5909 2.73751C11.8217 2.83501 12.0742 2.78917 12.2525 2.64001L12.3525 2.55501C13.075 1.9525 14.2309 2.00334 14.9025 2.67167L15.3275 3.09834C16.0242 3.79667 16.0742 4.89251 15.4442 5.64834L15.3609 5.74667C15.2042 5.93001 15.1659 6.18167 15.2584 6.40334C15.3517 6.62834 15.5584 6.77834 15.7967 6.80167L15.9234 6.81334C16.9067 6.90251 17.6459 7.71334 17.6459 8.69834V9.30084C17.6459 10.2867 16.9059 11.0958 15.9259 11.1858L15.7967 11.1975C15.56 11.2175 15.355 11.3683 15.2634 11.5892C15.1692 11.8158 15.2075 12.0675 15.3609 12.2517L15.4442 12.3517C16.0742 13.1058 16.0242 14.2017 15.3275 14.9017L14.9025 15.3267C14.23 15.9967 13.0775 16.0467 12.3525 15.4433L12.2567 15.3633C12.0759 15.2108 11.815 15.1717 11.5984 15.2617C11.3709 15.3567 11.2192 15.5617 11.1984 15.8L11.1867 15.925C11.0975 16.9025 10.2867 17.6417 9.30171 17.6417L9.30004 17.6458ZM6.15587 13.9625C6.40587 13.9625 6.65004 14.0125 6.88087 14.1083C7.53921 14.3817 7.98421 14.9867 8.04754 15.6883L8.05921 15.8108C8.09004 16.1442 8.36504 16.3942 8.70087 16.3942H9.30254C9.63587 16.3942 9.91087 16.1442 9.94254 15.8108L9.95421 15.6875C10.0175 14.9858 10.4625 14.3817 11.1142 14.1108C11.775 13.8358 12.5275 13.9592 13.0584 14.4025L13.1525 14.4808C13.3009 14.6042 13.4575 14.6308 13.5634 14.6308C13.735 14.6308 13.8967 14.5642 14.0184 14.4417L14.4434 14.0167C14.68 13.78 14.6975 13.4083 14.4834 13.1517L14.4 13.0517C13.9484 12.51 13.8359 11.7683 14.1067 11.1158C14.3784 10.4575 14.9834 10.0158 15.685 9.95167L15.8142 9.94001C16.145 9.90917 16.3975 9.63417 16.3975 9.29834V8.69667C16.3975 8.36334 16.145 8.08834 15.8125 8.05667L15.6859 8.04501C14.9809 7.98001 14.3775 7.53667 14.1067 6.88417C13.835 6.22751 13.9484 5.48584 14.4009 4.945L14.4842 4.84667C14.6984 4.58834 14.6809 4.21667 14.4442 3.98001L14.0192 3.55501C13.8975 3.43251 13.7359 3.36584 13.5642 3.36584C13.4584 3.36584 13.3017 3.39251 13.1542 3.51584L13.0542 3.59917C12.5259 4.03917 11.7625 4.15751 11.1192 3.89417C10.4625 3.62167 10.0192 3.01751 9.95504 2.31417L9.94337 2.18501C9.91421 1.85417 9.63921 1.60167 9.30421 1.60167H8.70171C8.36837 1.60167 8.09337 1.85417 8.06171 2.18667L8.05004 2.31334C7.98671 3.01584 7.54337 3.62001 6.89171 3.89084C6.23587 4.16251 5.48087 4.04334 4.95004 3.59917L4.85171 3.51917C4.70171 3.39417 4.54504 3.36917 4.43921 3.36917C4.26754 3.36917 4.10587 3.43584 3.98421 3.55751L3.55754 3.98251C3.32254 4.21917 3.30504 4.59084 3.51921 4.84751L3.60254 4.94584C4.05254 5.49001 4.16671 6.23251 3.89587 6.88334C3.62337 7.54001 3.01921 7.98334 2.31671 8.04751L2.18671 8.05917C1.85587 8.09001 1.60337 8.36501 1.60337 8.70084V9.30251C1.60337 9.63584 1.85587 9.91084 2.18837 9.9425L2.31337 9.95417C3.02004 10.0192 3.62421 10.4642 3.89421 11.1175C4.16504 11.7725 4.05254 12.5133 3.60004 13.055L3.52004 13.1508C3.30337 13.4092 3.32171 13.7808 3.55837 14.0175L3.98337 14.4425C4.10504 14.565 4.26671 14.6317 4.43837 14.6317C4.54421 14.6317 4.70087 14.6067 4.84837 14.4817L4.94504 14.4017C5.28337 14.1217 5.71421 13.965 6.15587 13.965V13.9625Z" fill="#EFF3F4"/>
</svg>
