<svg width="18" height="18" viewBox="0 0 18 18" fill="none" xmlns="http://www.w3.org/2000/svg">
<path d="M13.6084 5.225L9.44176 1.05833C9.19759 0.814168 8.80176 0.814168 8.55843 1.05833L4.39176 5.225C4.14676 5.46917 4.14676 5.865 4.39176 6.10833C4.63676 6.35167 5.03092 6.35333 5.27509 6.10833L8.37509 3.00833V11.5C8.37509 11.845 8.65509 12.125 9.00009 12.125C9.34509 12.125 9.62509 11.845 9.62509 11.5V3.00833L12.7251 6.10833C12.8468 6.23083 13.0068 6.29167 13.1668 6.29167C13.3268 6.29167 13.4868 6.23167 13.6084 6.10833C13.8526 5.86417 13.8526 5.46917 13.6084 5.225Z" fill="#6E767D"/>
<path d="M15.4234 17.2867H2.57675C1.52341 17.2867 0.666748 16.43 0.666748 15.3767V10.6667C0.666748 10.3217 0.946748 10.0417 1.29175 10.0417C1.63675 10.0417 1.91675 10.3217 1.91675 10.6667V15.3767C1.91675 15.7408 2.21258 16.0367 2.57675 16.0367H15.4234C15.7876 16.0367 16.0834 15.7408 16.0834 15.3767V10.6667C16.0834 10.3217 16.3634 10.0417 16.7084 10.0417C17.0534 10.0417 17.3334 10.3217 17.3334 10.6667V15.3767C17.3334 16.43 16.4767 17.2867 15.4234 17.2867Z" fill="#6E767D"/>
</svg>
