<svg width="20" height="18" viewBox="0 0 20 18" fill="none" xmlns="http://www.w3.org/2000/svg">
<path d="M18.9767 7.75501L14.295 5.92834L12.495 0.511677C12.41 0.255844 12.17 0.0833435 11.9017 0.0833435C11.6333 0.0833435 11.3933 0.255844 11.3083 0.510844L9.50833 5.92751L4.825 7.75418C4.58583 7.84751 4.4275 8.07918 4.4275 8.33751C4.4275 8.59584 4.58583 8.82501 4.82583 8.91918L9.50917 10.7458L11.3092 16.1625C11.3942 16.4175 11.6342 16.59 11.9025 16.59C12.1708 16.59 12.4108 16.4175 12.4958 16.1625L14.2958 10.7458L18.9792 8.91918C19.2183 8.82584 19.3767 8.59418 19.3767 8.33584C19.3767 8.07751 19.2183 7.84834 18.9783 7.75501H18.9767ZM13.5683 9.68834C13.395 9.75501 13.26 9.89668 13.2017 10.0717L11.9017 13.9842L10.6017 10.0733C10.5433 9.89834 10.41 9.75668 10.2367 9.68834L6.77417 8.33834L10.2358 6.98668C10.4092 6.92001 10.5442 6.77834 10.6025 6.60168L11.9025 2.69084L13.2025 6.60251C13.2608 6.77918 13.3942 6.92084 13.5675 6.98834L17.03 8.33834L13.5675 9.69001L13.5683 9.68834ZM5.5525 2.17668H3.98583V0.708344C3.98583 0.363344 3.705 0.0833435 3.36083 0.0833435C3.01667 0.0833435 2.73583 0.363344 2.73583 0.708344V2.17668H1.25C0.905 2.17668 0.625 2.45668 0.625 2.80168C0.625 3.14668 0.905 3.42668 1.25 3.42668H2.735V4.89501C2.735 5.24001 3.015 5.52001 3.36 5.52001C3.705 5.52001 3.985 5.24001 3.985 4.89501V3.42668H5.55167C5.8975 3.42668 6.17667 3.14668 6.17667 2.80168C6.17667 2.45668 5.8975 2.17668 5.55167 2.17668H5.5525ZM7.665 15.195H6.74833V14.3483C6.74833 14.0033 6.46917 13.7233 6.12333 13.7233C5.7775 13.7233 5.49833 14.0033 5.49833 14.3483V15.195H4.64167C4.29667 15.195 4.01667 15.475 4.01667 15.82C4.01667 16.165 4.29667 16.445 4.64167 16.445H5.5V17.2917C5.5 17.6367 5.77917 17.9167 6.125 17.9167C6.47083 17.9167 6.75 17.6367 6.75 17.2917V16.445H7.665C8.01 16.445 8.29 16.165 8.29 15.82C8.29 15.475 8.01 15.195 7.665 15.195Z" fill="#D9D9D9"/>
</svg>
