<svg version="1.1" id="Layer_1" xmlns="http://www.w3.org/2000/svg" xmlns:xlink="http://www.w3.org/1999/xlink" x="0px" y="0px"
	 width="100%" viewBox="0 0 100 100" enable-background="new 0 0 100 100" xml:space="preserve">
<path fill="#FFFFFF" opacity="1.000000" stroke="none" 
	d="
M12.000000,101.000000 
	C8.333333,100.666672 4.666666,100.333336 1.290338,99.786850 
	C2.366602,98.583405 3.106740,97.552429 3.945385,96.609016 
	C14.940232,84.240913 25.903896,71.844414 36.999741,59.567432 
	C38.797199,57.578629 39.439716,56.491093 37.552822,53.846092 
	C26.060995,37.737160 14.897801,21.393980 3.549615,5.181694 
	C3.085091,4.518063 1.867003,4.381907 1.000000,4.000000 
	C1.000000,3.013054 1.000000,2.026109 1.000000,1.000000 
	C11.020868,1.000000 21.041777,1.000000 31.532761,1.362775 
	C40.182945,13.399121 48.363049,25.072693 56.574249,36.790642 
	C65.282692,27.121126 74.009193,17.542521 82.578613,7.825384 
	C84.352013,5.814476 85.541428,3.288556 87.000000,0.999999 
	C90.361290,1.000000 93.722572,1.000000 97.469193,1.334457 
	C85.643684,15.568266 73.432838,29.467619 61.261276,43.322254 
	C73.520462,60.895927 85.745018,78.454506 98.047539,95.958290 
	C98.693123,96.876823 100.000641,97.330116 101.000000,98.000000 
	C101.000000,98.986946 101.000000,99.973892 101.000000,101.000000 
	C90.979134,101.000000 80.958221,101.000000 70.467239,100.637222 
	C61.293259,87.856621 52.589359,75.438805 43.924389,63.076530 
	C34.831501,73.357086 25.904024,83.341698 17.127237,93.457062 
	C15.148585,95.737480 13.695189,98.473633 12.000000,101.000000 
M52.033333,44.384293 
	C45.091244,34.491913 38.196171,24.565960 31.173313,14.731254 
	C29.462820,12.335911 27.716848,9.096720 25.301765,8.285099 
	C21.991407,7.172609 18.026791,8.006947 13.911189,8.006947 
	C18.545893,14.263200 22.776012,19.776569 26.798304,25.437607 
	C42.584480,47.655334 58.291370,69.929420 74.100365,92.130829 
	C74.734947,93.021996 76.073868,93.837982 77.140648,93.915215 
	C80.360306,94.148323 83.607628,93.999374 87.708023,93.999374 
	C75.575020,77.118042 64.025223,61.048153 52.033333,44.384293 
z"/>
<path fill="#000000" opacity="1.000000" stroke="none" 
	d="
M101.000000,97.531342 
	C100.000641,97.330116 98.693123,96.876823 98.047539,95.958290 
	C85.745018,78.454506 73.520462,60.895927 61.261276,43.322254 
	C73.432838,29.467619 85.643684,15.568266 97.927261,1.334457 
	C98.995605,1.000000 99.991211,1.000000 100.993408,0.999999 
	C101.000000,33.020893 101.000000,65.041786 101.000000,97.531342 
z"/>
<path fill="#000000" opacity="1.000000" stroke="none" 
	d="
M1.000000,4.468657 
	C1.867003,4.381907 3.085091,4.518063 3.549615,5.181694 
	C14.897801,21.393980 26.060995,37.737160 37.552822,53.846092 
	C39.439716,56.491093 38.797199,57.578629 36.999741,59.567432 
	C25.903896,71.844414 14.940232,84.240913 3.945385,96.609016 
	C3.106740,97.552429 2.366602,98.583405 1.290338,99.286842 
	C1.000000,67.645775 1.000000,36.291542 1.000000,4.468657 
z"/>
<path fill="#000000" opacity="1.000000" stroke="none" 
	d="
M12.468658,101.000000 
	C13.695189,98.473633 15.148585,95.737480 17.127237,93.457062 
	C25.904024,83.341698 34.831501,73.357086 43.924389,63.076530 
	C52.589359,75.438805 61.293259,87.856621 69.998581,100.637222 
	C50.979103,101.000000 31.958210,101.000000 12.468658,101.000000 
z"/>
<path fill="#000000" opacity="1.000000" stroke="none" 
	d="
M86.531342,0.999999 
	C85.541428,3.288556 84.352013,5.814476 82.578613,7.825384 
	C74.009193,17.542521 65.282692,27.121126 56.574249,36.790642 
	C48.363049,25.072693 40.182945,13.399121 32.001419,1.362775 
	C50.020893,1.000000 68.041786,1.000000 86.531342,0.999999 
z"/>
<path fill="#000000" opacity="1.000000" stroke="none" 
	d="
M52.254379,44.681278 
	C64.025223,61.048153 75.575020,77.118042 87.708023,93.999374 
	C83.607628,93.999374 80.360306,94.148323 77.140648,93.915215 
	C76.073868,93.837982 74.734947,93.021996 74.100365,92.130829 
	C58.291370,69.929420 42.584480,47.655334 26.798304,25.437607 
	C22.776012,19.776569 18.545893,14.263200 13.911189,8.006947 
	C18.026791,8.006947 21.991407,7.172609 25.301765,8.285099 
	C27.716848,9.096720 29.462820,12.335911 31.173313,14.731254 
	C38.196171,24.565960 45.091244,34.491913 52.254379,44.681278 
z"/>
</svg>