<svg version="1.1" id="Layer_1" xmlns="http://www.w3.org/2000/svg" xmlns:xlink="http://www.w3.org/1999/xlink" x="0px" y="0px"
	 width="100%" viewBox="0 0 60 60" enable-background="new 0 0 60 60" xml:space="preserve">
<path fill="none" opacity="1.000000" stroke="none" 
	d="
M45.007366,61.000000 
	C30.006191,61.000000 15.506350,61.000000 1.004880,61.000000 
	C1.003253,41.002388 1.003253,21.004772 1.001626,1.005368 
	C20.997396,1.003579 40.994793,1.003579 60.994141,1.001789 
	C60.996094,20.997179 60.996094,40.994358 60.998047,60.995770 
	C55.836235,61.000000 50.672466,61.000000 45.007366,61.000000 
M37.789005,31.696791 
	C42.632339,28.406816 43.218582,23.635611 43.116901,18.220640 
	C43.019596,13.038632 40.602329,9.604903 36.267368,7.901999 
	C31.801313,6.147597 26.998842,5.884199 22.957579,9.532963 
	C18.864653,13.228370 17.361609,22.557795 20.082376,27.227055 
	C22.948345,32.145496 30.759506,34.338661 37.789005,31.696791 
M11.204748,44.959442 
	C10.501364,47.065987 9.521646,49.147778 9.328807,51.300064 
	C9.290449,51.728195 12.258437,52.902500 13.850665,52.923252 
	C24.966043,53.068104 36.085384,53.082066 47.200325,52.921303 
	C49.111572,52.893658 51.007866,51.832188 52.911068,51.248280 
	C51.924126,48.992096 51.563072,45.893448 49.847076,44.618591 
	C39.874382,37.209625 22.342136,36.474464 11.204748,44.959442 
z"/>
<path fill="#1D9BF0" opacity="1.000000" stroke="none" 
	d="
M37.417793,31.843468 
	C30.759506,34.338661 22.948345,32.145496 20.082376,27.227055 
	C17.361609,22.557795 18.864653,13.228370 22.957579,9.532963 
	C26.998842,5.884199 31.801313,6.147597 36.267368,7.901999 
	C40.602329,9.604903 43.019596,13.038632 43.116901,18.220640 
	C43.218582,23.635611 42.632339,28.406816 37.417793,31.843468 
z"/>
<path fill="#1D9BF0" opacity="1.000000" stroke="none" 
	d="
M11.550915,44.775276 
	C22.342136,36.474464 39.874382,37.209625 49.847076,44.618591 
	C51.563072,45.893448 51.924126,48.992096 52.911068,51.248276 
	C51.007866,51.832188 49.111572,52.893658 47.200325,52.921303 
	C36.085384,53.082066 24.966043,53.068104 13.850665,52.923252 
	C12.258437,52.902500 9.290449,51.728195 9.328807,51.300064 
	C9.521646,49.147778 10.501364,47.065987 11.550915,44.775276 
z"/>
</svg>
